<svg width="24" height="24" viewBox="0 0 24 24" fill="none" xmlns="http://www.w3.org/2000/svg">
<path d="M7.00007 7.91421C7.3906 7.52369 7.3906 6.89052 7.00008 6.5C6.60955 6.10948 5.97639 6.10948 5.58586 6.5L0.792969 11.2929C0.402445 11.6834 0.402444 12.3166 0.792969 12.7071L5.58586 17.5C5.97639 17.8905 6.60955 17.8905 7.00008 17.5C7.3906 17.1095 7.3906 16.4763 7.00008 16.0858L2.91429 12L7.00007 7.91421Z" fill="white"/>
<path d="M17 16.0858C16.6095 16.4763 16.6095 17.1095 17 17.5C17.3905 17.8905 18.0237 17.8905 18.4142 17.5L23.2071 12.7071C23.5976 12.3166 23.5976 11.6834 23.2071 11.2929L18.4142 6.5C18.0237 6.10948 17.3905 6.10948 17 6.5C16.6095 6.89052 16.6095 7.52369 17 7.91421L21.0858 12L17 16.0858Z" fill="white"/>
<path d="M14.4341 3.20613C13.9018 3.05894 13.3506 3.37094 13.2034 3.90317L8.8703 19.5633C8.723 20.0956 9.03561 20.6467 9.56797 20.7939C10.1002 20.9411 10.6514 20.6291 10.7987 20.0968L15.1318 4.43675C15.2791 3.90441 14.9665 3.35335 14.4341 3.20613Z" fill="white"/>
</svg>
