<svg width="24" height="24" viewBox="0 0 24 24" fill="none" xmlns="http://www.w3.org/2000/svg">
<path fill-rule="evenodd" clip-rule="evenodd" d="M4 4V15.5858L10 9.58578L14 13.5858L16 11.5858L20 15.5858V4H4ZM10 12.4142L4 18.4142V20H20V18.4142L16 14.4142L12.7071 17.7071C12.3166 18.0976 11.6834 18.0976 11.2929 17.7071C10.9024 17.3166 10.9024 16.6834 11.2929 16.2929L12.5858 15L10 12.4142ZM22 21V18.001V17.999V3C22 2.44772 21.5523 2 21 2H3C2.44772 2 2 2.44772 2 3V18V21C2 21.5523 2.44772 22 3 22H21C21.5523 22 22 21.5523 22 21ZM18 8C18 9.10457 17.1046 10 16 10C14.8954 10 14 9.10457 14 8C14 6.89543 14.8954 6 16 6C17.1046 6 18 6.89543 18 8Z" fill="white"/>
</svg>
