<svg width="24" height="23" viewBox="0 0 24 23" fill="none" xmlns="http://www.w3.org/2000/svg">
<path fill-rule="evenodd" clip-rule="evenodd" d="M5 13.4167C6.10457 13.4167 7 12.5585 7 11.5C7 10.4414 6.10457 9.58333 5 9.58333C3.89543 9.58333 3 10.4414 3 11.5C3 12.5585 3.89543 13.4167 5 13.4167Z" fill="#050038"/>
<path fill-rule="evenodd" clip-rule="evenodd" d="M12 13.4167C13.1046 13.4167 14 12.5585 14 11.5C14 10.4414 13.1046 9.58333 12 9.58333C10.8954 9.58333 10 10.4414 10 11.5C10 12.5585 10.8954 13.4167 12 13.4167Z" fill="#050038"/>
<path fill-rule="evenodd" clip-rule="evenodd" d="M19 13.4167C20.1046 13.4167 21 12.5585 21 11.5C21 10.4414 20.1046 9.58333 19 9.58333C17.8954 9.58333 17 10.4414 17 11.5C17 12.5585 17.8954 13.4167 19 13.4167Z" fill="#050038"/>
</svg>
