<svg width="48" height="48" viewBox="0 0 48 48" fill="none" xmlns="http://www.w3.org/2000/svg">
<rect width="48" height="48" fill="#E5E5E5"/>
<path d="M43.2381 2H24.7619C23.2365 2 22 3.23654 22 4.7619V35.2381C22 36.7635 23.2365 38 24.7619 38H43.2381C44.7635 38 46 36.7635 46 35.2381V4.7619C46 3.23654 44.7635 2 43.2381 2Z" fill="#FFF9DF"/>
<path d="M46.01 0H21.99C21.4622 0 20.9561 0.20966 20.5829 0.582857C20.2097 0.956055 20 1.46222 20 1.99V8H23V3H45V37H28V40H46.01C46.5378 40 47.0439 39.7903 47.4171 39.4171C47.7903 39.0439 48 38.5378 48 38.01V1.99C48 1.46222 47.7903 0.956055 47.4171 0.582857C47.0439 0.20966 46.5378 0 46.01 0V0Z" fill="#3E52D8"/>
<path d="M26.01 8H1.99C1.46222 8 0.956055 8.20966 0.582857 8.58286C0.20966 8.95605 0 9.46222 0 9.99L0 46.01C0 46.5378 0.20966 47.0439 0.582857 47.4171C0.956055 47.7903 1.46222 48 1.99 48H26.01C26.5378 48 27.0439 47.7903 27.4171 47.4171C27.7903 47.0439 28 46.5378 28 46.01V9.99C28 9.46222 27.7903 8.95605 27.4171 8.58286C27.0439 8.20966 26.5378 8 26.01 8Z" fill="#3E52D8"/>
<path d="M0.58 24.0005C0.3856 23.9992 0.1936 24.0079 0 24.0112V46.01C0 46.5378 0.20966 47.0439 0.582857 47.4171C0.956055 47.7903 1.46222 48 1.99 48H24.6346C24.5751 41.6438 22.02 35.5657 17.5201 31.0761C13.0203 26.5866 6.93629 24.0454 0.58 24.0005Z" fill="#050039"/>
<path d="M0.2225 33.33C0.1473 33.33 0.0748 33.34 0 33.3412V46.01C0 46.5378 0.20966 47.0439 0.582857 47.4171C0.956055 47.7903 1.46222 48 1.99 48H15.29C15.1834 44.0741 13.5494 40.3447 10.7355 37.605C7.92158 34.8654 4.14983 33.3316 0.2225 33.33Z" fill="#FFD02F"/>
<path d="M26.01 8H12.4214C12.4743 12.1153 14.1326 16.0471 17.0427 18.9574C19.9529 21.8676 23.8847 23.526 28 23.579V9.99C28 9.46222 27.7903 8.95605 27.4171 8.58286C27.0439 8.20966 26.5378 8 26.01 8Z" fill="#FF6474"/>
</svg>
