<svg xmlns="http://www.w3.org/2000/svg" width="42" height="40" viewBox="0 0 42 40"><defs><linearGradient id="company-sygnet-gradient-1" x1=".994" y1=".913" x2=".007" y2=".088" gradientUnits="objectBoundingBox"><stop offset="0" stop-color="#11c7ff"/><stop offset="1" stop-color="#0062e1"/></linearGradient><linearGradient id="company-sygnet-gradient-2" x1="1" y1=".918" x2="0" y2=".082" gradientUnits="objectBoundingBox"><stop offset="0" stop-color="#ff0060"/><stop offset="1" stop-color="#ff39c3"/></linearGradient></defs><path d="M35 5h-3a2 2 0 0 0-2-2H5a2 2 0 0 0-2 2v19a2 2 0 0 0 2 2h25a2 2 0 0 0 2-2V14h3v10a5 5 0 0 1-5 5h-9v2a1 1 0 0 1-1 1h-6a1 1 0 0 1-1-1v-2H5a5 5 0 0 1-5-5V5a5 5 0 0 1 5-5h25a5 5 0 0 1 5 5z" fill="url(#company-sygnet-gradient-1)"/><path d="M7 32h3a2 2 0 0 0 2 2h25a2 2 0 0 0 2-2V13a2 2 0 0 0-2-2H12a2 2 0 0 0-2 2v10H7V13a5 5 0 0 1 5-5h25a5 5 0 0 1 5 5v19a5 5 0 0 1-5 5h-9v2a1 1 0 0 1-1 1h-6a1 1 0 0 1-1-1v-2h-8a5 5 0 0 1-5-5z" fill-rule="evenodd" fill="url(#company-sygnet-gradient-2)"/></svg>
