<svg width="48" height="48" viewBox="0 0 48 48" fill="none" xmlns="http://www.w3.org/2000/svg">
<mask id="mask0" mask-type="alpha" maskUnits="userSpaceOnUse" x="5" y="5" width="38" height="38">
<ellipse cx="23.931" cy="23.931" rx="18.7418" ry="18.7418" fill="white"/>
</mask>
<g mask="url(#mask0)">
<path d="M18.5098 29.1594C17.3529 29.1594 16.4274 28.2339 16.4274 27.077V20.8297C16.4274 19.6728 17.3529 18.7473 18.5098 18.7473C19.6667 18.7473 20.5922 19.6728 20.5922 20.8297V27.0307C20.5922 28.1876 19.6667 29.1594 18.5098 29.1594Z" fill="#AE304A"/>
<path d="M29.2922 22.9127C28.922 22.9127 28.598 22.8202 28.2741 22.6351L22.8598 19.5346C21.888 18.9793 21.5178 17.6835 22.1194 16.7117C22.6747 15.7399 23.9704 15.3697 24.9422 15.9713L30.3103 19.0718C31.2821 19.6271 31.6523 20.9229 31.0507 21.8947C30.6805 22.5425 29.9863 22.9127 29.2922 22.9127Z" fill="#106D65"/>
<path d="M45.4425 32.2606C45.0723 32.2606 44.7484 32.1681 44.4244 31.983L39.0101 28.8825C38.0383 28.3272 37.6681 27.0314 38.2697 26.0596C38.825 25.0878 40.1208 24.7176 41.0926 25.3192L46.4606 28.4197C47.4324 28.975 47.8026 30.2708 47.201 31.2426C46.8771 31.8904 46.1367 32.2606 45.4425 32.2606Z" fill="#0093E5"/>
<path d="M13.0955 13.5646C12.7253 13.5646 12.4014 13.472 12.0774 13.2869L6.70942 10.1864C5.73762 9.63112 5.36741 8.33539 5.969 7.36359C6.52432 6.3918 7.82005 6.02159 8.79184 6.62318L14.1599 9.72367C15.1317 10.279 15.5019 11.5747 14.9003 12.5465C14.5301 13.1944 13.8359 13.5646 13.0955 13.5646Z" fill="#649791"/>
<path d="M13.0955 32.2606C12.7253 32.2606 12.4014 32.1681 12.0774 31.983L6.70942 28.8825C5.73762 28.3272 5.36741 27.0314 5.969 26.0596C6.52432 25.0878 7.82005 24.7176 8.79184 25.3192L14.1599 28.4197C15.1317 28.975 15.5019 30.2708 14.9003 31.2426C14.5301 31.8904 13.8359 32.2606 13.0955 32.2606Z" fill="#0093E5"/>
<path d="M29.2921 41.5619C28.9219 41.5619 28.598 41.4694 28.274 41.2842L22.906 38.1838C21.9342 37.6284 21.564 36.3327 22.1656 35.3609C22.7209 34.3891 24.0166 34.0189 24.9884 34.6205L30.3565 37.721C31.3283 38.2763 31.6985 39.572 31.0969 40.5438C30.6804 41.1917 29.9863 41.5619 29.2921 41.5619Z" fill="#649791"/>
<path d="M18.5098 10.4642C17.3529 10.4642 16.4274 9.5387 16.4274 8.3818V2.18081C16.4274 1.02391 17.3529 0.0983887 18.5098 0.0983887C19.6667 0.0983887 20.5922 1.02391 20.5922 2.18081V8.3818C20.5922 9.5387 19.6667 10.4642 18.5098 10.4642Z" fill="#690E26"/>
<path d="M18.5098 47.8093C17.3529 47.8093 16.4274 46.8838 16.4274 45.7269V39.4796C16.4274 38.3227 17.3529 37.3972 18.5098 37.3972C19.6667 37.3972 20.5922 38.3227 20.5922 39.4796V45.6806C20.5922 46.8838 19.6667 47.8093 18.5098 47.8093Z" fill="#B9BC63"/>
<path d="M34.6602 19.8119C33.5033 19.8119 32.5778 18.8864 32.5778 17.7295V11.5285C32.5778 10.3716 33.5033 9.44604 34.6602 9.44604C35.8171 9.44604 36.7426 10.3716 36.7426 11.5285V17.7295C36.7426 18.8864 35.8171 19.8119 34.6602 19.8119Z" fill="#B9BC63"/>
<path d="M34.6602 38.4611C33.5033 38.4611 32.5778 37.5355 32.5778 36.3786V30.1776C32.5778 29.0207 33.5033 28.0952 34.6602 28.0952C35.8171 28.0952 36.7426 29.0207 36.7426 30.1776V36.3786C36.7426 37.5355 35.8171 38.4611 34.6602 38.4611Z" fill="#690E26"/>
<path d="M23.8778 13.5647C23.1374 13.5647 22.4433 13.1945 22.0731 12.5466C21.5178 11.5748 21.8417 10.2791 22.8135 9.72375L28.2278 6.57698C29.1996 6.02166 30.4953 6.3456 31.0506 7.31739C31.6059 8.28919 31.282 9.58492 30.3102 10.1402L24.9422 13.2407C24.6183 13.5184 24.248 13.5647 23.8778 13.5647Z" fill="#91BEAF"/>
<path d="M7.72751 22.9129C6.98709 22.9129 6.29295 22.5427 5.92274 21.8948C5.36743 20.923 5.69136 19.6273 6.66316 19.072L12.0312 15.9715C13.003 15.4162 14.2987 15.7401 14.854 16.7119C15.4093 17.6837 15.0854 18.9795 14.1136 19.5348L8.79186 22.6353C8.42165 22.8204 8.09772 22.9129 7.72751 22.9129Z" fill="#F1CE4A"/>
<path d="M40.0744 22.9129C39.334 22.9129 38.6399 22.5427 38.2697 21.8948C37.7144 20.923 38.0383 19.6273 39.0101 19.072L44.3781 15.9715C45.3499 15.4162 46.6456 15.7401 47.2009 16.7119C47.7563 17.6837 47.4323 18.9795 46.4605 19.5348L41.0925 22.6353C40.7686 22.8204 40.3984 22.9129 40.0744 22.9129Z" fill="#F1CE4A"/>
<path d="M7.72751 41.5614C6.98709 41.5614 6.29295 41.1911 5.92274 40.5433C5.36743 39.5715 5.69136 38.2758 6.66316 37.7204L12.0312 34.6199C13.003 34.0646 14.2987 34.3886 14.854 35.3604C15.4093 36.3322 15.0854 37.6279 14.1136 38.1832L8.79186 41.2837C8.42165 41.4688 8.09772 41.5614 7.72751 41.5614Z" fill="#91BEAF"/>
<path d="M23.8778 32.2601C23.1374 32.2601 22.4433 31.8899 22.0731 31.242C21.5178 30.2702 21.8417 28.9745 22.8135 28.4192L28.1815 25.3187C29.1533 24.7634 30.449 25.0873 31.0044 26.0591C31.5597 27.0309 31.2357 28.3266 30.2639 28.8819L24.8959 31.9824C24.6183 32.1675 24.248 32.2601 23.8778 32.2601Z" fill="#E6961E"/>
</g>
</svg>
