<svg width="24" height="24" viewBox="0 0 24 24" fill="none" xmlns="http://www.w3.org/2000/svg">
<path fill-rule="evenodd" clip-rule="evenodd" d="M3 2H6C6.55228 2 7 2.44772 7 3V9C7 9.55228 6.55228 10 6 10C5.44772 10 5 9.55228 5 9V4H3C2.44772 4 2 3.55228 2 3C2 2.44772 2.44772 2 3 2ZM20 5H11C10.4477 5 10 5.44772 10 6C10 6.55228 10.4477 7 11 7H20C20.5523 7 21 6.55228 21 6C21 5.44772 20.5523 5 20 5ZM20 16H11C10.4477 16 10 16.4477 10 17C10 17.5523 10.4477 18 11 18H20C20.5523 18 21 17.5523 21 17C21 16.4477 20.5523 16 20 16ZM2 17V20C2 20.5523 2.44772 21 3 21H7C7.55228 21 8 20.5523 8 20C8 19.4477 7.55228 19 7 19H4V18H7C7.55228 18 8 17.5523 8 17V14C8 13.4477 7.55228 13 7 13H3C2.44772 13 2 13.4477 2 14C2 14.5523 2.44772 15 3 15H6V16H3C2.44772 16 2 16.4477 2 17Z" fill="#050038"/>
</svg>
